<?xml version="1.0" encoding="utf-8"?>
<!-- Uploaded to: SVG Repo, www.svgrepo.com, Generator: SVG Repo Mixer Tools -->
<svg width="800px" height="800px" viewBox="0 0 1024 1024" class="icon"  version="1.1" xmlns="http://www.w3.org/2000/svg"><path d="M961.3 842.2c0 4.3-3.5 7.7-7.7 7.7H70.5c-4.3 0-7.7-3.5-7.7-7.7v-27.7c0-4.3 3.5-7.7 7.7-7.7h883.1c4.3 0 7.7 3.5 7.7 7.7v27.7z" fill="#A4A9AD" /><path d="M953.5 806.8H812.9V850h140.6c4.3 0 7.7-3.5 7.7-7.7v-27.7c0.1-4.4-3.4-7.8-7.7-7.8z" fill="#218649" /><path d="M346.6 353.1H867v453.6H346.6z" fill="#00B3E3" /><path d="M783.9 581.7H867v40h-83.1zM435 445.3h83.1v40H435zM370.2 661.3h83.1v40h-83.1zM572.2 606.4h83.1v40h-83.1zM671.9 377.1H755v40h-83.1zM710.1 741.8h83.1v40h-83.1z" fill="" /><path d="M346.6 353.1v453.7h95.2v-404H867v-49.7z" fill="" /><path d="M911.4 293c0-10.5-8.6-19.2-19.2-19.2H365.8c-10.5 0-19.2 8.6-19.2 19.2v64.9c0 10.5 8.6 19.2 19.2 19.2h526.4c10.5 0 19.2-8.6 19.2-19.2V293z" fill="#333E48" /><path d="M810 519.2c0 15.8-12.9 28.8-28.8 28.8H497.4c-15.8 0-28.8-12.9-28.8-28.8V482c0-15.8 12.9-28.8 28.8-28.8h283.8c15.8 0 28.8 12.9 28.8 28.8v37.2z" fill="#FFFFFF" /><path d="M625 453.3h28.8V548H625z" fill="#0071CE" /><path d="M781.3 453.3H497.4c-15.8 0-28.8 12.9-28.8 28.8v32c0-15.8 12.9-28.8 28.8-28.8h283.8c15.8 0 28.8 12.9 28.8 28.8v-32c0-15.9-12.9-28.8-28.7-28.8z" fill="" /><path d="M497.4 467.7c-7.9 0-14.4 6.4-14.4 14.4v37.2c0 7.9 6.4 14.4 14.4 14.4h283.8c7.9 0 14.4-6.4 14.4-14.4v-37.2c0-7.9-6.5-14.4-14.4-14.4H497.4z m283.9 94.6H497.4c-23.8 0-43.1-19.3-43.1-43.1V482c0-23.8 19.3-43.1 43.1-43.1h283.8c23.8 0 43.1 19.3 43.1 43.1v37.2c0.1 23.8-19.2 43.1-43 43.1z" fill="#0071CE" /><path d="M527.1 646.3h224.6v160.4H527.1z" fill="#FFFFFF" /><path d="M751.7 632H527.1c-7.9 0-14.4 6.4-14.4 14.4v160.4h28.8v-146H625v146h28.8v-146h83.6v146H766V646.3c0-7.9-6.4-14.3-14.3-14.3z" fill="#333E48" /><path d="M411.8 806.8V192c0-10.5-8.6-19.2-19.2-19.2H140.2c-10.5 0-19.2 8.6-19.2 19.2v614.8h290.8z" fill="#0071CE" /><path d="M121.1 649.9h83.1v40h-83.1zM328.7 528h83.1v40h-83.1zM121.1 242.7h83.1v40h-83.1zM172.8 469.8h83.1v40h-83.1zM328.7 211.6h83.1v40h-83.1zM273.7 721.9h83.1v40h-83.1z" fill="" /><path d="M354.9 582.6c0-15.8-12.9-28.8-28.8-28.8H206.7c-15.8 0-28.8 12.9-28.8 28.8v52.7c0 15.8 12.9 28.8 28.8 28.8h119.4c15.8 0 28.8-12.9 28.8-28.8v-52.7z" fill="#FFFFFF" /><path d="M326.1 553.8H206.7c-15.8 0-28.8 12.9-28.8 28.8V616c0-15.8 12.9-28.8 28.8-28.8h119.4c15.8 0 28.8 12.9 28.8 28.8v-33.4c0-15.8-13-28.8-28.8-28.8z" fill="" /><path d="M206.7 568.2c-7.9 0-14.4 6.4-14.4 14.4v52.7c0 7.9 6.4 14.4 14.4 14.4h119.4c7.9 0 14.4-6.4 14.4-14.4v-52.7c0-7.9-6.4-14.4-14.4-14.4H206.7z m119.4 110.2H206.7c-23.8 0-43.1-19.3-43.1-43.1v-52.7c0-23.8 19.3-43.1 43.1-43.1h119.4c23.8 0 43.1 19.3 43.1 43.1v52.7c0 23.8-19.3 43.1-43.1 43.1z" fill="#00B3E3" /><path d="M844.1 681.3h45.7v125.5h-45.7z" fill="#D68231" /><path d="M844.1 681.3v61c7.1 2.6 14.8 4 22.9 4 8 0 15.7-1.4 22.9-4v-61h-45.8z" fill="" /><path d="M933.6 660.1c0-36.8-29.9-125.9-66.7-125.9-36.8 0-66.7 89.1-66.7 125.9s29.9 66.7 66.7 66.7c36.9 0 66.7-29.9 66.7-66.7z" fill="#218649" /><path d="M266.4 333.1m-107.5 0a107.5 107.5 0 1 0 215 0 107.5 107.5 0 1 0-215 0Z" fill="#FFFFFF" /><path d="M274.8 389.3c-4.6-1.6-12.1-1.6-16.7 0l-35.5 12.6c-4.6 1.6-8.3-1-8.1-5.9l1-37.6c0.1-4.9-2.2-12-5.2-15.9l-23-29.8c-3-3.9-1.6-8.2 3.1-9.5l36.1-10.6c4.7-1.4 10.8-5.8 13.5-9.8l21.3-31.1c2.8-4 7.3-4 10 0l21.3 31.1c2.8 4 8.9 8.5 13.5 9.8l36.1 10.6c4.7 1.4 6.1 5.7 3.1 9.5l-23 29.8c-3 3.9-5.3 11-5.2 15.9l1 37.6c0.1 4.9-3.5 7.5-8.1 5.9l-35.2-12.6z" fill="#FFB819" /></svg>